<svg id="visual" viewBox="0 0 900 600" width="900" height="600" xmlns="http://www.w3.org/2000/svg" xmlns:xlink="http://www.w3.org/1999/xlink" version="1.1"><path d="M0 97L13.7 93C27.3 89 54.7 81 82 85C109.3 89 136.7 105 163.8 105C191 105 218 89 245.2 79C272.3 69 299.7 65 327 64C354.3 63 381.7 65 409 62C436.3 59 463.7 51 491 49C518.3 47 545.7 51 573 62C600.3 73 627.7 91 654.8 96C682 101 709 93 736.2 87C763.3 81 790.7 77 818 77C845.3 77 872.7 81 886.3 83L900 85L900 0L886.3 0C872.7 0 845.3 0 818 0C790.7 0 763.3 0 736.2 0C709 0 682 0 654.8 0C627.7 0 600.3 0 573 0C545.7 0 518.3 0 491 0C463.7 0 436.3 0 409 0C381.7 0 354.3 0 327 0C299.7 0 272.3 0 245.2 0C218 0 191 0 163.8 0C136.7 0 109.3 0 82 0C54.7 0 27.3 0 13.7 0L0 0Z" fill="#6198ff"></path><path d="M0 223L13.7 211C27.3 199 54.7 175 82 179C109.3 183 136.7 215 163.8 216C191 217 218 187 245.2 169C272.3 151 299.7 145 327 157C354.3 169 381.7 199 409 209C436.3 219 463.7 209 491 192C518.3 175 545.7 151 573 156C600.3 161 627.7 195 654.8 200C682 205 709 181 736.2 173C763.3 165 790.7 173 818 183C845.3 193 872.7 205 886.3 211L900 217L900 83L886.3 81C872.7 79 845.3 75 818 75C790.7 75 763.3 79 736.2 85C709 91 682 99 654.8 94C627.7 89 600.3 71 573 60C545.7 49 518.3 45 491 47C463.7 49 436.3 57 409 60C381.7 63 354.3 61 327 62C299.7 63 272.3 67 245.2 77C218 87 191 103 163.8 103C136.7 103 109.3 87 82 83C54.7 79 27.3 87 13.7 91L0 95Z" fill="#3c80ff"></path><path d="M0 355L13.7 356C27.3 357 54.7 359 82 374C109.3 389 136.7 417 163.8 404C191 391 218 337 245.2 324C272.3 311 299.7 339 327 365C354.3 391 381.7 415 409 404C436.3 393 463.7 347 491 335C518.3 323 545.7 345 573 350C600.3 355 627.7 343 654.8 342C682 341 709 351 736.2 364C763.3 377 790.7 393 818 399C845.3 405 872.7 401 886.3 399L900 397L900 215L886.3 209C872.7 203 845.3 191 818 181C790.7 171 763.3 163 736.2 171C709 179 682 203 654.8 198C627.7 193 600.3 159 573 154C545.7 149 518.3 173 491 190C463.7 207 436.3 217 409 207C381.7 197 354.3 167 327 155C299.7 143 272.3 149 245.2 167C218 185 191 215 163.8 214C136.7 213 109.3 181 82 177C54.7 173 27.3 197 13.7 209L0 221Z" fill="#0066ff"></path><path d="M0 427L13.7 425C27.3 423 54.7 419 82 435C109.3 451 136.7 487 163.8 479C191 471 218 419 245.2 404C272.3 389 299.7 411 327 431C354.3 451 381.7 469 409 460C436.3 451 463.7 415 491 405C518.3 395 545.7 411 573 410C600.3 409 627.7 391 654.8 389C682 387 709 401 736.2 422C763.3 443 790.7 471 818 480C845.3 489 872.7 479 886.3 474L900 469L900 395L886.3 397C872.7 399 845.3 403 818 397C790.7 391 763.3 375 736.2 362C709 349 682 339 654.8 340C627.7 341 600.3 353 573 348C545.7 343 518.3 321 491 333C463.7 345 436.3 391 409 402C381.7 413 354.3 389 327 363C299.7 337 272.3 309 245.2 322C218 335 191 389 163.8 402C136.7 415 109.3 387 82 372C54.7 357 27.3 355 13.7 354L0 353Z" fill="#0059dd"></path><path d="M0 601L13.7 601C27.3 601 54.7 601 82 601C109.3 601 136.7 601 163.8 601C191 601 218 601 245.2 601C272.3 601 299.7 601 327 601C354.3 601 381.7 601 409 601C436.3 601 463.7 601 491 601C518.3 601 545.7 601 573 601C600.3 601 627.7 601 654.8 601C682 601 709 601 736.2 601C763.3 601 790.7 601 818 601C845.3 601 872.7 601 886.3 601L900 601L900 467L886.3 472C872.7 477 845.3 487 818 478C790.7 469 763.3 441 736.2 420C709 399 682 385 654.8 387C627.7 389 600.3 407 573 408C545.7 409 518.3 393 491 403C463.7 413 436.3 449 409 458C381.7 467 354.3 449 327 429C299.7 409 272.3 387 245.2 402C218 417 191 469 163.8 477C136.7 485 109.3 449 82 433C54.7 417 27.3 421 13.7 423L0 425Z" fill="#004cbb"></path></svg>